PathFileType	4	(X/Y/Z)	8_coords_data.trc
DataRate	CameraRate	NumFrames	NumMarkers	Units	OrigDataRate	OrigDataStartFrame	OrigNumFrames
30.0	30.0	6	21	m	30.0	11	62
Frame#	Time	THUMB_TIP	THUMB_IP	THUMB_MCP	THUMB_CMC	INDEX_TIP	INDEX_DIP	INDEX_PIP	INDEX_MCP	MIDDLE_TIP	MIDDLE_DIP	MIDDLE_PIP	MIDDLE_MCP	RING_TIP	RING_DIP	RING_PIP	RING_MCP	PINKY_TIP	PINKY_DIP	PINKY_PIP	PINKY_MCP	WRIST
X1	Y1	Z1	X2	Y2	Z2	X3	Y3	Z3	X4	Y4	Z4	X5	Y5	Z5	X6	Y6	Z6	X7	Y7	Z7	X8	Y8	Z8	X9	Y9	Z9	X10	Y10	Z10	X11	Y11	Z11	X12	Y12	Z12	X13	Y13	Z13	X14	Y14	Z14	X15	Y15	Z15	X16	Y16	Z16	X17	Y17	Z17	X18	Y18	Z18	X19	Y19	Z19	X20	Y20	Z20	X21	Y21	Z21
10	0.3333333333333333	-0.009334099769592286	-0.08877040100097656	1.0169400024414061	-0.012292099952697753	-0.06810189819335938	1.033550048828125	-0.01624839973449707	-0.04710960006713867	1.0501800537109376	-0.018591100692749024	-0.01679439926147461	1.0623599853515624	0.0018536900281906118	-0.06872879791259766	0.9413159790039063	-0.005348450183868409	-0.06063249969482422	0.9601329956054687	-0.01439579963684082	-0.052327701568603516	0.9784400024414063	-0.023753299713134765	-0.035060001373291017	1.00997998046875	-0.000169900000095367	-0.028828399658203125	0.9193380126953125	-0.007707910060882568	-0.025904699325561522	0.942364013671875	-0.019291200637817384	-0.021885700225830078	0.96710400390625	-0.027024999618530273	-0.01458940029144287	1.0031900024414062	0.0062636399269104005	0.0068836498260498044	0.9282169799804687	-0.0043861899375915525	0.007218609809875489	0.948989990234375	-0.016606000900268553	0.007347959995269776	0.9712979736328125	-0.02187730026245117	0.005082819938659668	1.004	0.016799400329589844	0.04641650009155274	0.9630750122070313	0.005592390060424805	0.03942229843139648	0.9780139770507813	-0.004473060131072998	0.032825199127197266	0.990583984375	-0.01585070037841797	0.02163949966430664	1.0104199829101563	-0.04213159942626953	0.011703800201416016	1.0736700439453124
11	0.36666666666666664	-0.00928777027130127	-0.08872869873046875	1.0168200073242188	-0.01228439998626709	-0.06811090087890626	1.0333900146484376	-0.016220100402832033	-0.04707229995727539	1.0500899658203124	-0.018538999557495116	-0.01676930046081543	1.06218994140625	0.0011366399526596069	-0.06822409820556641	0.9406069946289063	-0.005920609951019287	-0.06027249908447266	0.95952197265625	-0.014728099822998046	-0.05210499954223633	0.9779520263671875	-0.023837900161743163	-0.035098499298095706	1.00972998046875	-0.00045243901014328005	-0.028656400680541993	0.9190590209960937	-0.007952950000762939	-0.025773300170898437	0.9421539916992188	-0.01943390083312988	-0.02178730010986328	0.9669660034179688	-0.027069900512695314	-0.014519800186157226	1.0030499877929688	0.006132199764251709	0.006879380226135254	0.928031005859375	-0.004491059780120849	0.007228769779205322	0.9487579956054687	-0.016691900253295897	0.007346749782562256	0.9711300048828125	-0.021953399658203126	0.005110960006713867	1.0038800048828125	0.016789600372314452	0.04647840118408203	0.9629669799804688	0.005557300090789795	0.03947190093994141	0.9778920288085937	-0.004513529777526856	0.03285079956054687	0.9904580078125	-0.015874300003051758	0.021668899536132814	1.0102899780273438	-0.042094799041748045	0.011681500434875489	1.07352001953125
12	0.4	-0.009286890029907227	-0.0887251968383789	1.0165700073242188	-0.012291899681091309	-0.06812570190429687	1.0330999755859376	-0.01625239944458008	-0.04713130187988281	1.049800048828125	-0.01861129951477051	-0.01682029914855957	1.0619599609375	0.001377820014953613	-0.06822679901123047	0.9405380249023437	-0.005769219875335694	-0.06026940155029297	0.9594149780273438	-0.014669699668884277	-0.05211840057373047	0.977781982421875	-0.02376490020751953	-0.03499530029296875	1.0096400146484374	-0.00035484498739242503	-0.028653200149536134	0.9189140014648437	-0.007882349967956543	-0.025773300170898437	0.9419719848632813	-0.019411399841308595	-0.021798799514770508	0.966760986328125	-0.027030399322509766	-0.01446749973297119	1.00302001953125	0.0062146100997924805	0.006886449813842774	0.9278720092773437	-0.004475080013275147	0.0072220897674560545	0.9486729736328126	-0.016564199447631836	0.0073237199783325185	0.9709400024414062	-0.021964399337768555	0.005066679954528809	1.0036900024414062	0.01684210014343262	0.04653710174560547	0.9628679809570313	0.005568920135498047	0.03950640106201172	0.9777620239257813	-0.00451632022857666	0.03286669921875	0.9902979736328125	-0.015905099868774412	0.021628599166870117	1.0101199951171875	-0.04215169906616211	0.011605400085449219	1.07322998046875
13	0.43333333333333335	-0.009315629959106446	-0.0887708969116211	1.016489990234375	-0.012359999656677246	-0.0681404037475586	1.032989990234375	-0.01628650093078613	-0.04711520004272461	1.0496099853515626	-0.018619499206542968	-0.016834400177001954	1.06175	0.001562809944152832	-0.06829180145263672	0.9404210205078125	-0.0056483597755432125	-0.060334300994873045	0.9592899780273437	-0.01461769962310791	-0.05217419815063477	0.9776740112304687	-0.023817800521850587	-0.035137199401855466	1.0093699951171875	-0.00033855199813842703	-0.028676599502563477	0.9187160034179688	-0.007862390041351319	-0.025792400360107423	0.9417670288085938	-0.01935810089111328	-0.021818199157714845	0.966552978515625	-0.027040700912475586	-0.014595399856567383	1.0026199951171875	0.006009399890899658	0.006839439868927002	0.9276229858398437	-0.004609950065612793	0.007199649810791016	0.9484509887695313	-0.016747900009155273	0.007311009883880616	0.970781982421875	-0.02200279998779297	0.005073309898376465	1.0034600219726562	0.016664199829101563	0.04650709915161133	0.9626439819335938	0.005447579860687256	0.03949869918823242	0.9775289916992187	-0.004577499866485596	0.03288140106201172	0.9900709838867188	-0.015967700004577638	0.021645700454711914	1.0099199829101562	-0.04220989990234375	0.011623800277709961	1.0731400146484376
14	0.4666666666666667	-0.009444829940795898	-0.08888899993896485	1.0162899780273438	-0.01243809986114502	-0.06829070281982422	1.03277001953125	-0.016394800186157226	-0.04729439926147461	1.0494300537109376	-0.018720800399780274	-0.016949100494384764	1.06156005859375	0.0012419799566268921	-0.06834339904785157	0.9401069946289062	-0.005914700031280517	-0.06038359832763672	0.9590139770507813	-0.014825300216674804	-0.0522135009765625	0.977427978515625	-0.0239148006439209	-0.03513180160522461	1.0092100219726563	-0.00039574399590492206	-0.0287992000579834	0.918510986328125	-0.007927420139312745	-0.02590760040283203	0.94156298828125	-0.019439199447631835	-0.021934200286865234	0.9663699951171875	-0.027079999923706053	-0.014686800003051758	1.0024199829101563	0.005985720157623291	0.006763519763946534	0.927426025390625	-0.004631319999694824	0.007089409828186035	0.9482150268554688	-0.016798299789428713	0.007202579975128174	0.9705390014648437	-0.02200869941711426	0.004942999839782715	1.00322998046875	0.01668050003051758	0.046420101165771485	0.962416015625	0.005447229862213135	0.039403999328613284	0.9773359985351563	-0.004611340045928955	0.0327932014465332	0.989906005859375	-0.01597469997406006	0.0215177001953125	1.0096900024414062	-0.04229600143432617	0.011495699882507324	1.0728299560546875
15	0.5	-0.009316880226135254	-0.08888999938964844	1.016	-0.012378700256347656	-0.06829789733886718	1.03252001953125	-0.01638909912109375	-0.047314899444580075	1.04918994140625	-0.018746400833129884	-0.01701449966430664	1.0613299560546876	0.001498520016670227	-0.0683196029663086	0.939885986328125	-0.005743080139160156	-0.06039820098876953	0.9587360229492188	-0.014716500282287598	-0.05225230026245117	0.977114990234375	-0.02391360092163086	-0.03527000045776367	1.0089199829101563	-0.00017438399791717501	-0.028764699935913084	0.9183070068359375	-0.007761769771575928	-0.02589629936218262	0.941343994140625	-0.019310800552368165	-0.02194099998474121	0.9661270141601562	-0.027105300903320313	-0.01470639991760254	1.0021799926757813	0.006262450218200683	0.00684115982055664	0.9272479858398438	-0.00443775987625122	0.00713139009475708	0.9480599975585937	-0.01667840003967285	0.007209169864654541	0.9703880004882812	-0.021993000030517577	0.00493002986907959	1.003030029296875	0.016863800048828124	0.04645199966430664	0.9623820190429687	0.005616020202636718	0.03941400146484375	0.9772260131835937	-0.0045106201171875	0.03276580047607422	0.9897169799804687	-0.015942899703979493	0.021481500625610352	1.009489990234375	-0.042388301849365234	0.011405599594116212	1.0726400146484374
